<?xml version="1.0" encoding="UTF-8"?> <svg xmlns="http://www.w3.org/2000/svg" width="81" height="50" viewBox="0 0 81 50" fill="none"><g clip-path="url(#clip0_61_380)"><path d="M40.2849 50C30.5378 49.952 21.2388 48.0794 12.7241 43.1498C9.10693 41.0531 5.92191 38.4443 3.47313 35.0192C-1.40844 28.249 -1.12034 20.1665 4.19336 13.7324C8.77082 8.21063 14.8208 4.9936 21.4949 2.7849C28.2491 0.560184 35.2273 -0.256077 42.3016 0.04802C51.5045 0.448148 60.2753 2.51281 68.1978 7.42638C71.751 9.61908 74.872 12.34 77.1447 15.8771C81.4181 22.5512 80.8579 30.3137 75.7523 36.3797C71.0468 41.9654 64.9008 45.2145 58.0826 47.3752C52.3048 49.2318 46.3508 50.064 40.2849 50ZM41.1972 23.5275C40.9411 22.8873 40.7971 22.5352 40.669 22.1831C38.6364 16.1492 36.6037 10.1152 34.6031 4.06531C34.331 3.24904 33.9789 2.92894 33.1146 3.105C31.6421 3.39309 30.1537 3.61716 28.6652 3.84123C27.977 3.93726 27.7529 4.32139 27.7689 4.96159C27.7849 5.9219 27.7689 6.89821 27.7689 7.85852C27.7689 20.0704 27.7689 32.2823 27.7529 44.4942C27.7529 45.5826 28.041 46.1268 29.1774 46.2548C30.6338 46.4309 32.0583 46.767 33.5147 47.0231C34.9392 47.2631 35.0512 47.1671 35.0672 45.7426C35.1153 40.8771 35.1633 36.0115 35.2113 31.146C35.2273 29.8976 35.2113 28.6652 35.2113 27.4168C35.2913 27.4168 35.3713 27.4008 35.4514 27.4008C37.34 33.2106 39.2286 39.0205 41.1012 44.8304C41.2292 44.8304 41.3573 44.8304 41.4853 44.8304C43.4699 38.9405 45.4706 33.0346 47.4552 27.1447C47.5832 27.1607 47.7113 27.1767 47.8393 27.2087C47.8393 33.6748 47.8393 40.1569 47.8393 46.927C49.84 46.5429 51.5685 46.2068 53.2971 45.9027C54.0813 45.7586 54.3534 45.3745 54.3534 44.5583C54.3374 31.6101 54.3374 18.662 54.3534 5.72984C54.3534 4.83355 53.9853 4.49744 53.185 4.33739C51.7126 4.06531 50.2241 3.76121 48.7516 3.44111C47.7273 3.21703 47.1991 3.47312 46.863 4.60948C45.0704 10.7875 43.1658 16.9814 41.1972 23.5275ZM25.7523 4.64149C25.2401 4.72152 24.824 4.72152 24.4238 4.84956C18.838 6.64213 13.6684 9.13893 9.315 13.1722C2.22473 19.7343 1.85661 29.0173 8.49873 35.9955C12.9482 40.653 18.5019 43.4539 24.5999 45.2305C25.9603 45.6306 26.1684 45.4225 26.1524 43.9981C26.1364 39.6287 26.1044 35.2753 26.0884 30.9059C26.0884 28.9053 26.1684 26.8886 26.1204 24.888C26.1204 24.5038 25.7042 23.8156 25.4642 23.8156C22.7593 23.7836 20.0544 23.8316 17.3336 23.8796C16.6934 23.8957 16.4693 24.2478 16.4853 24.856C16.5333 26.1364 16.5333 27.4008 16.5653 28.6812C16.5813 29.4654 16.8854 29.8816 17.7497 29.8816C18.1018 29.8816 18.742 30.1697 18.742 30.3457C18.822 31.8982 18.79 33.4507 18.79 35.1633C16.3092 34.219 14.4366 32.9065 12.9482 31.0499C9.81116 27.1447 10.0192 21.5749 13.5884 18.0698C14.9488 16.7254 16.5653 15.589 18.2299 14.6447C20.3105 13.4763 22.5832 12.6601 24.7279 11.6037C25.1441 11.3957 25.6242 10.8195 25.6562 10.3873C25.8163 8.54674 25.7523 6.70615 25.7523 4.64149ZM56.274 45.1184C57.4904 44.7023 58.3387 44.4302 59.155 44.1101C62.5 42.8297 62.532 42.8297 62.6281 39.2766C62.6441 38.4763 62.9642 38.0602 63.6844 37.8681C64.8368 37.548 65.9891 37.2279 67.1415 36.8918C72.8713 35.1633 76.0243 31.37 76.3925 25.4001C76.6485 21.2068 75.016 17.5416 72.1671 14.5967C67.8777 10.1473 62.6601 7.09027 56.7062 5.36172C56.5461 5.31371 56.3541 5.36172 56.258 5.36172C56.274 18.5499 56.274 31.6901 56.274 45.1184Z" fill="#F05420"></path><path d="M41.1972 23.5275C43.1658 16.9814 45.0704 10.7875 46.879 4.56147C47.1991 3.4251 47.7273 3.16902 48.7676 3.39309C50.2401 3.7132 51.7125 4.00129 53.201 4.28938C53.9853 4.43343 54.3694 4.78554 54.3694 5.68183C54.3374 18.63 54.3374 31.5781 54.3694 44.5103C54.3694 45.3265 54.1133 45.7106 53.313 45.8547C51.5845 46.1588 49.8559 46.4949 47.8553 46.879C47.8553 40.1088 47.8553 33.6428 47.8553 27.1607C47.7273 27.1447 47.5992 27.1287 47.4712 27.0967C45.4865 32.9866 43.4859 38.8925 41.5013 44.7823C41.3732 44.7823 41.2452 44.7823 41.1171 44.7823C39.2285 38.9725 37.3399 33.1626 35.4673 27.3528C35.3873 27.3528 35.3073 27.3688 35.2273 27.3688C35.2273 28.6172 35.2433 29.8496 35.2273 31.098C35.1792 35.9635 35.1312 40.8291 35.0832 45.6946C35.0672 47.1191 34.9552 47.2311 33.5307 46.975C32.0903 46.719 30.6498 46.3829 29.1933 46.2068C28.041 46.0788 27.7529 45.5186 27.7689 44.4462C27.8009 32.2343 27.7849 20.0224 27.7849 7.81051C27.7849 6.8502 27.8009 5.87389 27.7849 4.91358C27.7849 4.28938 28.0089 3.90526 28.6812 3.79322C30.1696 3.56915 31.6581 3.36108 33.1306 3.05699C33.9949 2.88093 34.347 3.20103 34.6191 4.01729C36.6197 10.0672 38.6524 16.1012 40.685 22.1351C40.797 22.5352 40.9411 22.8873 41.1972 23.5275Z" fill="white"></path><path d="M25.7523 4.64148C25.7523 6.70614 25.8163 8.56273 25.7042 10.4033C25.6882 10.8355 25.1921 11.4116 24.7759 11.6197C22.6313 12.6761 20.3585 13.4923 18.2779 14.6607C16.6133 15.589 14.9968 16.7414 13.6364 18.0858C10.0672 21.5909 9.85916 27.1607 12.9962 31.0659C14.4686 32.9065 16.3572 34.2189 18.838 35.1793C18.838 33.4507 18.87 31.8982 18.79 30.3617C18.774 30.1857 18.1338 29.8976 17.7977 29.8976C16.9334 29.8976 16.6293 29.4814 16.6133 28.6972C16.5973 27.4168 16.5813 26.1524 16.5333 24.872C16.5173 24.2478 16.7414 23.8956 17.3816 23.8956C20.0864 23.8476 22.7913 23.7836 25.5122 23.8316C25.7523 23.8316 26.1524 24.5198 26.1684 24.904C26.2164 26.9046 26.1204 28.9212 26.1364 30.9219C26.1364 35.2913 26.1844 39.6447 26.2004 44.0141C26.2004 45.4385 26.0083 45.6306 24.6479 45.2465C18.5339 43.4699 12.9802 40.669 8.54675 36.0115C1.90462 29.0333 2.27274 19.7503 9.36301 13.1882C13.7164 9.15492 18.9021 6.65812 24.4718 4.86555C24.8079 4.72151 25.2401 4.72151 25.7523 4.64148Z" fill="white"></path><path d="M56.274 45.1185C56.274 31.6902 56.274 18.55 56.274 5.32972C56.3541 5.32972 56.5461 5.2817 56.7222 5.32972C62.6761 7.05827 67.8938 10.1313 72.1831 14.5647C75.0481 17.5256 76.6646 21.1748 76.4085 25.3681C76.0404 31.338 72.8874 35.1313 67.1575 36.8598C66.0052 37.2119 64.8528 37.516 63.7004 37.8361C62.9802 38.0442 62.6601 38.4443 62.6441 39.2446C62.5481 42.7977 62.5321 42.7977 59.171 44.0781C58.3387 44.4302 57.5064 44.7023 56.274 45.1185ZM62.9002 15.7651C62.7721 16.0211 62.7081 16.0852 62.7081 16.1492C62.6921 21.0788 62.6601 26.0243 62.7081 30.9539C62.7081 31.178 63.3323 31.6421 63.5884 31.5941C64.6127 31.4021 65.621 31.13 66.5813 30.7619C69.3342 29.6895 70.7587 27.3048 70.4546 24.3758C70.2625 22.5352 69.4463 20.9827 68.3099 19.5903C66.8854 17.8137 65.1729 16.4533 62.9002 15.7651Z" fill="white"></path><path d="M62.9001 15.765C65.1728 16.4533 66.8854 17.8137 68.3098 19.5743C69.4462 20.9667 70.2785 22.5352 70.4545 24.3598C70.7426 27.3047 69.3342 29.6895 66.5813 30.7458C65.621 31.114 64.5967 31.4021 63.5883 31.5781C63.3323 31.6261 62.7081 31.178 62.7081 30.9379C62.676 26.0083 62.6921 21.0627 62.7081 16.1332C62.7081 16.0851 62.7721 16.0051 62.9001 15.765Z" fill="#F05420"></path></g><defs><clipPath id="clip0_61_380"><rect width="80.0256" height="50" fill="white"></rect></clipPath></defs></svg> 